<?xml version="1.0" encoding="UTF-8"?>
<svg width="180px" height="50px" viewBox="0 0 180 50" version="1.1" xmlns="http://www.w3.org/2000/svg" xmlns:xlink="http://www.w3.org/1999/xlink">
    <title>MedIndeniz</title>
    <g id="Page-1" stroke="none" stroke-width="1" fill="none" fill-rule="evenodd">
        <g id="Logo" fill="#FFFFFF" fill-rule="nonzero">
            <path d="M12.876,39 L12.876,15.564 L13.308,15.564 L25.236,31.86 L37.164,15.564 L37.596,15.564 L37.596,39 L34.452,39 L34.452,21.456 L25.236,33.78 L16.02,21.456 L16.02,39 L12.876,39 Z" id="M"></path>
            <path d="M48.96,39 L48.96,15.564 L59.592,15.564 C62.208,15.564 64.356,16.416 66.036,18.12 C67.716,19.824 68.556,21.936 68.556,24.456 C68.556,26.976 67.716,29.088 66.036,30.792 C64.356,32.496 62.208,33.348 59.592,33.348 L52.104,33.348 L52.104,39 L48.96,39 Z M52.104,30.204 L59.592,30.204 C61.248,30.204 62.604,29.664 63.66,28.584 C64.716,27.504 65.244,26.136 65.244,24.48 C65.244,22.8 64.716,21.42 63.66,20.34 C62.604,19.26 61.248,18.72 59.592,18.72 L52.104,18.72 L52.104,30.204 Z" id="D"></path>
            <path d="M79.92,39 L79.92,15.564 L83.064,15.564 L83.064,39 L79.92,39 Z" id="I"></path>
            <path d="M94.428,39 L94.428,15.564 L97.572,15.564 L97.572,35.844 L109.56,35.844 L109.56,39 L94.428,39 Z" id="L"></path>
            <path d="M120.924,39 L120.924,15.564 L131.556,15.564 C134.172,15.564 136.32,16.416 138,18.12 C139.68,19.824 140.52,21.936 140.52,24.456 C140.52,26.976 139.68,29.088 138,30.792 C136.32,32.496 134.172,33.348 131.556,33.348 L124.068,33.348 L124.068,39 L120.924,39 Z M124.068,30.204 L131.556,30.204 C133.212,30.204 134.568,29.664 135.624,28.584 C136.68,27.504 137.208,26.136 137.208,24.48 C137.208,22.8 136.68,21.42 135.624,20.34 C134.568,19.26 133.212,18.72 131.556,18.72 L124.068,18.72 L124.068,30.204 Z" id="D-2"></path>
            <path d="M151.884,39 L151.884,15.564 L167.016,15.564 L167.016,18.72 L155.028,18.72 L155.028,25.596 L166.584,25.596 L166.584,28.752 L155.028,28.752 L155.028,35.844 L167.016,35.844 L167.016,39 L151.884,39 Z" id="E"></path>
            <path d="M171.252,15.564 L174.924,15.564 L182.772,33.78 L179.964,33.78 L177.924,28.872 L169.164,28.872 L167.124,33.78 L164.316,33.78 L172.164,15.564 L171.252,15.564 Z M176.604,25.932 L173.544,18.564 L170.484,25.932 L176.604,25.932 Z" id="A"></path>
            
            <path d="M6,10 C8.209,10 10,8.209 10,6 C10,3.791 8.209,2 6,2 C3.791,2 2,3.791 2,6 C2,8.209 3.791,10 6,10 Z" id="Dot-1"></path>
            <path d="M6,48 C8.209,48 10,46.209 10,44 C10,41.791 8.209,40 6,40 C3.791,40 2,41.791 2,44 C2,46.209 3.791,48 6,48 Z" id="Dot-2"></path>
        </g>
    </g>
</svg>